name Walk9.mot
datacolumns 19
datarows 22
range 1.12600000 1.14700000
endheader

                time	   L_ground_force_vx	   L_ground_force_vy	   L_ground_force_vz	   L_ground_force_px	   L_ground_force_py	   L_ground_force_pz	   R_ground_force_vx	   R_ground_force_vy	   R_ground_force_vz	   R_ground_force_px	   R_ground_force_py	   R_ground_force_pz	   L_ground_torque_x	   L_ground_torque_y	   L_ground_torque_z	   R_ground_torque_x	   R_ground_torque_y	   R_ground_torque_z	
          1.12600000	          0.00000000	          0.00000000	          0.00000000	          0.00000000	          0.00000000	          0.00000000	          0.00000000	          0.00000000	          0.00000000	          0.00000000	          0.00000000	          0.00000000	          0.00000000	          0.00000000	          0.00000000	          0.00000000	          0.00000000	          0.00000000	
          1.12700000	          0.00000000	          0.00000000	          0.00000000	          0.00000000	          0.00000000	          0.00000000	          0.00000000	          0.00000000	          0.00000000	          0.00000000	          0.00000000	          0.00000000	          0.00000000	          0.00000000	          0.00000000	          0.00000000	          0.00000000	          0.00000000	
          1.12800000	          0.00000000	          0.00000000	          0.00000000	          0.00000000	          0.00000000	          0.00000000	          0.00000000	          0.00000000	          0.00000000	          0.00000000	          0.00000000	          0.00000000	          0.00000000	          0.00000000	          0.00000000	          0.00000000	          0.00000000	          0.00000000	
          1.12900000	          0.00000000	          0.00000000	          0.00000000	          0.00000000	          0.00000000	          0.00000000	          0.00000000	          0.00000000	          0.00000000	          0.00000000	          0.00000000	          0.00000000	          0.00000000	          0.00000000	          0.00000000	          0.00000000	          0.00000000	          0.00000000	
          1.13000000	          0.00000000	          0.00000000	          0.00000000	          0.00000000	          0.00000000	          0.00000000	          0.00000000	          0.00000000	          0.00000000	          0.00000000	          0.00000000	          0.00000000	          0.00000000	          0.00000000	          0.00000000	          0.00000000	          0.00000000	          0.00000000	
          1.13100000	          0.00000000	          0.00000000	          0.00000000	          0.00000000	          0.00000000	          0.00000000	          0.00000000	          0.00000000	          0.00000000	          0.00000000	          0.00000000	          0.00000000	          0.00000000	          0.00000000	          0.00000000	          0.00000000	          0.00000000	          0.00000000	
          1.13200000	          0.00000000	          0.00000000	          0.00000000	          0.00000000	          0.00000000	          0.00000000	          0.36312852	         13.30630117	         -0.78226912	         -0.43694868	          0.00000000	         -0.03237454	          0.00000000	          0.00000000	          0.00000000	          0.00000000	         -0.02642052	          0.00000000	
          1.13300000	          0.00000000	          0.00000000	          0.00000000	          0.00000000	          0.00000000	          0.00000000	          0.68799609	         33.23025174	         -1.40398201	         -0.43303851	          0.00000000	         -0.03831372	          0.00000000	          0.00000000	          0.00000000	          0.00000000	         -0.01023545	          0.00000000	
          1.13400000	          0.00000000	          0.00000000	          0.00000000	          0.00000000	          0.00000000	          0.00000000	          0.89038463	         64.84563551	         -2.23174126	         -0.43124640	          0.00000000	         -0.04057126	          0.00000000	          0.00000000	          0.00000000	          0.00000000	          0.05183810	          0.00000000	
          1.13500000	          0.00000000	          0.00000000	          0.00000000	          0.00000000	          0.00000000	          0.00000000	          0.74445129	        110.48289004	         -3.22884805	         -0.43024544	          0.00000000	         -0.04125605	          0.00000000	          0.00000000	          0.00000000	          0.00000000	          0.16147701	          0.00000000	
          1.13600000	          0.00000000	          0.00000000	          0.00000000	          0.00000000	          0.00000000	          0.00000000	          0.19512341	        170.13066119	         -4.30904775	         -0.42957681	          0.00000000	         -0.04103805	          0.00000000	          0.00000000	          0.00000000	          0.00000000	          0.28528471	          0.00000000	
          1.13700000	          0.00000000	          0.00000000	          0.00000000	          0.00000000	          0.00000000	          0.00000000	         -0.54829152	        239.74279698	         -5.43649544	         -0.42902601	          0.00000000	         -0.04040042	          0.00000000	          0.00000000	          0.00000000	          0.00000000	          0.37910897	          0.00000000	
          1.13800000	          0.00000000	          0.00000000	          0.00000000	          0.00000000	          0.00000000	          0.00000000	         -1.18982578	        311.06683582	         -6.71155529	         -0.42854095	          0.00000000	         -0.03969236	          0.00000000	          0.00000000	          0.00000000	          0.00000000	          0.42018954	          0.00000000	
          1.13900000	          0.00000000	          0.00000000	          0.00000000	          0.00000000	          0.00000000	          0.00000000	         -1.61902849	        373.97456570	         -8.32906027	         -0.42812387	          0.00000000	         -0.03908186	          0.00000000	          0.00000000	          0.00000000	          0.00000000	          0.40948431	          0.00000000	
          1.14000000	          0.00000000	          0.00000000	          0.00000000	          0.00000000	          0.00000000	          0.00000000	         -1.96940881	        420.28833973	        -10.46094424	         -0.42775689	          0.00000000	         -0.03859771	          0.00000000	          0.00000000	          0.00000000	          0.00000000	          0.35659912	          0.00000000	
          1.14100000	          0.00000000	          0.00000000	          0.00000000	          0.00000000	          0.00000000	          0.00000000	         -2.44936334	        446.61032133	        -13.17244439	         -0.42739440	          0.00000000	         -0.03821455	          0.00000000	          0.00000000	          0.00000000	          0.00000000	          0.27815696	          0.00000000	
          1.14200000	          0.00000000	          0.00000000	          0.00000000	          0.00000000	          0.00000000	          0.00000000	         -3.19581519	        454.67548048	        -16.39738014	         -0.42699334	          0.00000000	         -0.03791891	          0.00000000	          0.00000000	          0.00000000	          0.00000000	          0.20302634	          0.00000000	
          1.14300000	          0.00000000	          0.00000000	          0.00000000	          0.00000000	          0.00000000	          0.00000000	         -4.26227002	        449.73982726	        -19.95510995	         -0.42653733	          0.00000000	         -0.03772281	          0.00000000	          0.00000000	          0.00000000	          0.00000000	          0.16466883	          0.00000000	
          1.14400000	          0.00000000	          0.00000000	          0.00000000	          0.00000000	          0.00000000	          0.00000000	         -5.66560510	        438.33547401	        -23.59422552	         -0.42602901	          0.00000000	         -0.03763742	          0.00000000	          0.00000000	          0.00000000	          0.00000000	          0.18531295	          0.00000000	
          1.14500000	          0.00000000	          0.00000000	          0.00000000	          0.00000000	          0.00000000	          0.00000000	         -7.43496031	        426.37421588	        -27.03447592	         -0.42548318	          0.00000000	         -0.03763898	          0.00000000	          0.00000000	          0.00000000	          0.00000000	          0.26160551	          0.00000000	
          1.14600000	          0.00000000	          0.00000000	          0.00000000	          0.00000000	          0.00000000	          0.00000000	         -9.62733537	        417.98042110	        -30.00405791	         -0.42493776	          0.00000000	         -0.03763808	          0.00000000	          0.00000000	          0.00000000	          0.00000000	          0.35965416	          0.00000000	
          1.14700000	          0.00000000	          0.00000000	          0.00000000	          0.00000000	          0.00000000	          0.00000000	        -12.28751133	        415.11745423	        -32.29867556	         -0.42443510	          0.00000000	         -0.03750960	          0.00000000	          0.00000000	          0.00000000	          0.00000000	          0.43309071	          0.00000000	
